<svg width="48" height="48" viewBox="0 0 48 48" fill="none" xmlns="http://www.w3.org/2000/svg">
<path d="M0 8C0 3.58172 3.58172 0 8 0H40C44.4183 0 48 3.58172 48 8V40C48 44.4183 44.4183 48 40 48H8C3.58172 48 0 44.4183 0 40V8Z" fill="#48C352"/>
<path d="M20 10.6665C19.495 10.6665 19.0333 10.9518 18.8074 11.4036L12.1408 24.7369C11.9341 25.1502 11.9562 25.6411 12.1991 26.0341C12.4421 26.4272 12.8712 26.6665 13.3333 26.6665H18.2923L16.0398 35.6765C15.8967 36.249 16.147 36.8475 16.655 37.1477C17.1631 37.448 17.8081 37.3785 18.2406 36.9769L36.9073 19.6436C37.309 19.2705 37.4415 18.6895 37.2411 18.1791C37.0407 17.6688 36.5483 17.3332 36 17.3332H30.3549L33.1433 12.6858C33.3905 12.2739 33.3969 11.7609 33.1603 11.3429C32.9236 10.9249 32.4804 10.6665 32 10.6665H20Z" fill="white"/>
<mask id="mask0_14_186" style="mask-type:alpha" maskUnits="userSpaceOnUse" x="12" y="10" width="26" height="28">
<path d="M20 10.6665C19.495 10.6665 19.0333 10.9518 18.8074 11.4036L12.1408 24.7369C11.9341 25.1502 11.9562 25.6411 12.1991 26.0341C12.4421 26.4272 12.8712 26.6665 13.3333 26.6665H18.2923L16.0398 35.6765C15.8967 36.249 16.147 36.8475 16.655 37.1477C17.1631 37.448 17.8081 37.3785 18.2406 36.9769L36.9073 19.6436C37.309 19.2705 37.4415 18.6895 37.2411 18.1791C37.0407 17.6688 36.5483 17.3332 36 17.3332H30.3549L33.1433 12.6858C33.3905 12.2739 33.3969 11.7609 33.1603 11.3429C32.9236 10.9249 32.4804 10.6665 32 10.6665H20Z" fill="#022C22"/>
</mask>
<g mask="url(#mask0_14_186)">
<rect x="8" y="11" width="31" height="29" fill="white"/>
</g>
</svg>
