<svg id="visual" viewBox="0 0 900 600" width="900" height="600" xmlns="http://www.w3.org/2000/svg" xmlns:xlink="http://www.w3.org/1999/xlink" version="1.1"><path d="M0 349L37.5 345C75 341 150 333 225 313C300 293 375 261 450 233C525 205 600 181 675 181C750 181 825 205 862.5 217L900 229L900 0L862.5 0C825 0 750 0 675 0C600 0 525 0 450 0C375 0 300 0 225 0C150 0 75 0 37.5 0L0 0Z" fill="#edffee"></path><path d="M0 427L37.5 436C75 445 150 463 225 455C300 447 375 413 450 373C525 333 600 287 675 287C750 287 825 333 862.5 356L900 379L900 227L862.5 215C825 203 750 179 675 179C600 179 525 203 450 231C375 259 300 291 225 311C150 331 75 339 37.5 343L0 347Z" fill="#9fe2a2"></path><path d="M0 601L37.5 601C75 601 150 601 225 601C300 601 375 601 450 601C525 601 600 601 675 601C750 601 825 601 862.5 601L900 601L900 377L862.5 354C825 331 750 285 675 285C600 285 525 331 450 371C375 411 300 445 225 453C150 461 75 443 37.5 434L0 425Z" fill="#48c352"></path></svg>